<?xml version="1.0" encoding="iso-8859-1"?>
<!-- Generator: Adobe Illustrator 19.0.0, SVG Export Plug-In . SVG Version: 6.00 Build 0)  -->
<svg version="1.1" id="Layer_1" xmlns="http://www.w3.org/2000/svg" xmlns:xlink="http://www.w3.org/1999/xlink" x="0px" y="0px"
	 viewBox="0 0 512 512" style="enable-background:new 0 0 512 512;" xml:space="preserve">
<rect x="4" y="65.048" style="fill:#FFFFFF;" width="504" height="381.904"/>
<g>
	<path style="fill:#AAC1CE;" d="M504,69.048v373.904H8V69.048H504 M512,61.048H0v389.904h512V61.048z"/>
	<rect x="3" y="126.84" style="fill:#AAC1CE;" width="505.84" height="8"/>
</g>
<circle style="fill:#E04F5F;" cx="48.08" cy="98.504" r="12.584"/>
<circle style="fill:#25B6D2;" cx="89.312" cy="98.504" r="12.584"/>
<circle style="fill:#32BEA6;" cx="130.568" cy="98.504" r="12.584"/>
<g>
	<path style="fill:#415E72;" d="M145.08,247.536c6.448-0.944,12.96-1.392,19.48-1.344c7.344-0.688,14.704,1.104,20.912,5.088
		c4.016,3.312,6.216,8.328,5.944,13.528c-0.104,7.168-4.656,13.52-11.416,15.92v0.288c4.656,2.408,7.864,6.912,8.632,12.096
		c2.016,7.288,4,15.736,5.28,18.224h-14.968c-1.992-4.864-3.496-9.904-4.504-15.064c-1.728-8.064-4.512-10.264-10.464-10.4h-4.416
		v25.432h-14.48V247.536z M159.568,275.368h5.76c7.288,0,11.608-3.648,11.608-9.312c0-5.944-4-8.92-10.752-9.016
		c-2.216-0.04-4.432,0.12-6.616,0.48V275.368z"/>
	<path style="fill:#415E72;" d="M216.112,246.672v37.232c0,11.128,4.224,16.8,11.712,16.8c7.672,0,11.888-5.376,11.888-16.8v-37.232
		h14.584v36.272c0,19.952-10.072,29.456-26.96,29.456c-16.312,0-25.904-9.016-25.904-29.648v-36.08L216.112,246.672z"/>
	<path style="fill:#415E72;" d="M267,247.536c6.248-0.96,12.568-1.408,18.896-1.344c6.584-0.576,13.192,0.688,19.096,3.648
		c4.792,2.4,7.808,7.304,7.776,12.664c-0.112,6.448-4.44,12.064-10.648,13.816v0.192c7.52,1.584,12.888,8.24,12.848,15.928
		c0.016,5.368-2.464,10.44-6.712,13.72c-7.608,4.68-16.536,6.728-25.424,5.84c-5.296,0.056-10.584-0.264-15.832-0.96L267,247.536
		L267,247.536z M281.488,272.296h4.8c7.68,0,11.808-3.2,11.808-8s-3.744-7.488-10.4-7.488c-2.088-0.032-4.168,0.096-6.232,0.384
		L281.488,272.296z M281.488,300.984c1.88,0.176,3.776,0.24,5.664,0.184c6.616,0,12.472-2.496,12.472-9.304
		c0-6.52-5.848-9.12-13.144-9.12h-4.992V300.984z"/>
	<path style="fill:#415E72;" d="M336.68,311.344v-26.488l-20.432-38.184h16.688l6.624,15.544c2.016,4.704,3.36,8.16,4.992,12.376
		h0.184c1.44-4,2.976-7.776,4.888-12.376l6.528-15.544h16.408l-21.304,37.712v26.96H336.68z"/>
</g>
<g>
</g>
<g>
</g>
<g>
</g>
<g>
</g>
<g>
</g>
<g>
</g>
<g>
</g>
<g>
</g>
<g>
</g>
<g>
</g>
<g>
</g>
<g>
</g>
<g>
</g>
<g>
</g>
<g>
</g>
</svg>
